<svg xmlns="http://www.w3.org/2000/svg" viewBox="0 0 442 33"><defs><style>.b{fill:#fff}</style></defs><path d="M129.888.711v2.053h.807c.8 0 1.93 0 2.375.436.866.922-.264 1.763-1.3 3.166-1.637 2.176-.621 3.6.457 2.835a27.939 27.939 0 0 1 2.633-1.8c1.372-.65 2.253 1.088.823 2.975-.564.775-1.647 1.752-2.347 2.785-.86 1.243-.458 2.914 1.2 1.673 1.914-1.44 2.591.791.569 2.891-1.856 1.99-2.984 3.424-2.439 5.16.2.631.443 1.326.652 1.932a.349.349 0 0 0 .075.109l-.049.08a.433.433 0 0 0-.174-.025h-1.161c-.064-.174-.673-1.82-1.323-3.588-.207-.527-.468-.9-1.741-1.281-.273-.082-.5-.15-.63-.187a.5.5 0 0 0-.484.08l-.818.6c-.764.563-1.141.74-1.47.656a.514.514 0 0 1-.377-.586v-.09a8.051 8.051 0 0 0 1.19-3.973l.047-.069a.519.519 0 0 1 .638-.284c.321.112.539.466.869 1.356.058.158.217.584.343.928a.524.524 0 0 0 .418.373l1.078.324a.275.275 0 0 1 .1.07l.079-.08a.339.339 0 0 1-.076-.109c-.454-1.231-.807-2.187-.836-2.27a4.924 4.924 0 0 0-1.9-2.742c-.975-.693-2.47-1.232-3.317-1.723-2.58-1.467-2.143-3.587-.676-3.506a11.961 11.961 0 0 1 2.756.839c1.58.584 1.629-1.367-.418-2.867-2.6-1.908-3.1-2.9-2.487-3.679.323-.413 1.215-.417 2.1-.41h.714V.705L108.648.7v2.05a5.7 5.7 0 0 1 4.93 3.82c1 2.633 9.241 23.506 10.087 25.728.229-.006 8.352 0 8.352 0 .72-1.838 8.768-22.509 10.074-25.813 1.166-2.951 2.411-3.526 3.8-3.641.329-.026.737-.042 1.08-.039V.718zm-6.14 19.33c-1.093-.391-1.508-.728-1.636-1.859-.035-.286-.043-.679-.043-.679s.224-.325.407-.544c.727-.874 1.262-.929 2.389-.656l.98.213a7.545 7.545 0 0 1-1.162 3.883z" fill="#d8ab4c"/><path class="b" d="M10.989 12.8l-.46.02-.139.007h-.046c-.2.01-.4.025-.589.025-.274 0-.53-.015-.781-.026H8.93a12.216 12.216 0 0 0-.679-.025h-.114v.609h.332c.6 0 .72.123.72.321a1.963 1.963 0 0 1-.161.685c-.077.192-1.656 4.2-2.041 5.174-.4-1.014-2.1-5.343-2.179-5.55a1.912 1.912 0 0 1-.108-.375c0-.1.155-.254.567-.254h.406V12.8h-.108l-.57.02-.158.006-.167.007c-.351.008-.717.023-1.025.023-.332 0-.67-.015-.994-.026a19.92 19.92 0 0 0-1.006-.028h-.11v.609h.239a.873.873 0 0 1 .99.672l3.371 8.2h.625l.029-.059c.094-.21.517-1.24 1.343-3.247.67-1.634 2.066-5.036 2.136-5.164a.58.58 0 0 1 .592-.4h.24V12.8h-.111zM19.445 21.021c-.135-.31-.268-.687-.389-1.054l-.09-.262a.179.179 0 0 1 0 .023c-.011-.052-.178-.516-2.338-6.6l-.12-.321c-.035-.1-.105-.095-.185-.087H16.254l-.143.013-.312.025h-.021a4.662 4.662 0 0 1-.611-.006h-.092l-.02.087c-.078.305-.263.8-.423 1.24l-.07.191-.169.463-2.072 5.967a1.073 1.073 0 0 1-1.024.77h-.187v.619l.125-.012.158-.008c.4-.018.819-.043 1.227-.043.452 0 .938.025 1.36.043l.2.008.116.015v-.605h-.251c-.26 0-.864-.036-.864-.358a2.044 2.044 0 0 1 .147-.567l.135-.416.391-1.271h2.787c.035.112.481 1.43.481 1.43a4.641 4.641 0 0 1 .253.9c0 .261-.481.282-.629.282h-.255v.6l.318-.012c.542-.018 1.1-.044 1.674-.044.549 0 1.073.025 1.587.043l.189.007.127.009v-.616H20.2a.711.711 0 0 1-.755-.453zM16.3 17.929h-2.127c.168-.507.828-2.519 1.065-3.246.084.241.988 3.028 1.062 3.246zM31.662 12.829h-.105c-.278.011-.526.023-.784.023-.3 0-.623-.016-.9-.026s-.6-.028-.914-.028h-.112v.609h.4c.368 0 .986.143.986 1.112 0 .043.027 3.668.031 4.631a4341.69 4341.69 0 0 0-5.613-6.321l-.031-.029h-.05c-.2 0-.4.013-.584.026h-.068l-.5.016-.618-.016h-.087c-.2-.012-.45-.024-.716-.024h-.111l.013.565.272.014a.964.964 0 0 1 .676.286 1.132 1.132 0 0 1 .318.8l-.037 5.465c0 .985-.163 1.556-.979 1.556l-.3.013v.579h.114c.287 0 .571-.012.846-.021h.023c.332-.019.606-.031.855-.031s.505.011.831.031h.021l.824.021h.108v-.608h-.331c-.833-.005-1.075-.319-1.075-1.41 0 0-.027-4.029-.031-5.056l6.521 7.271h.67l-.016-.126a8.242 8.242 0 0 1-.076-1.3l.037-5.907c0-1.541.568-1.541.984-1.541l.3-.012v-.587h-.108zM42.794 14.064a5.675 5.675 0 0 0-3.843-1.264l-.784.025h-.058c-.384.014-.8.03-1.249.03-.476 0-.972-.02-1.4-.035l-.255-.008-.423-.011h-.11v.609h.292c.54 0 .85.1.85.631v6.8c0 .589-.356.638-.785.638l-.294.01v.589h.112l.591-.016h.152c.382-.014.857-.032 1.334-.032 1.065 0 2.077.039 2.36.051a4.607 4.607 0 0 0 3.46-1.255 4.716 4.716 0 0 0 1.467-3.412 4.318 4.318 0 0 0-1.417-3.35zm-.617 3.6a3.979 3.979 0 0 1-.824 2.538 3.026 3.026 0 0 1-2.418 1.068c-.878 0-1.239-.083-1.239-.918v-6.709l.1-.01a6.2 6.2 0 0 1 .671-.046 3.8 3.8 0 0 1 2.614.782 4.2 4.2 0 0 1 1.096 3.294zM53.294 19.836c-.187.7-.391 1.042-.726 1.215a3.952 3.952 0 0 1-1.6.17h-.031c-.911 0-1.471-.034-1.471-.734v-2.844h1.49c.784 0 .844.323.924 1.112l.015.124.58-.121-.007-.1a23.736 23.736 0 0 1 0-2.769l.007-.119-.55.014-.01.093c-.079.692-.3.893-.974.893h-1.473v-3.104h1.7c1.294 0 1.386.427 1.45 1.246l.014.131.572-.152-.009-.092a16.785 16.785 0 0 1 .021-1.711l.015-.289h-.114c-.418 0-.946.013-1.5.027h-.114c-.58.011-1.18.026-1.716.026-.607 0-1.333-.019-1.859-.029-.6-.016-1.051-.025-1.375-.025h-.113v.609h.3c.537 0 .849.1.849.631v6.8c0 .552-.279.661-.762.661h-.292v.575h.108l1.324-.019c.643-.015 1.388-.033 2.045-.033.635 0 1.358.018 1.984.033h.116l1.317.016h.1l.014-.092.105-.713a12.417 12.417 0 0 1 .23-1.3l.023-.109-.578-.143zM72.832 17.012a2.161 2.161 0 0 0 1.792-2.063 1.848 1.848 0 0 0-.705-1.528 3.8 3.8 0 0 0-2.365-.622c-.279 0-.588.012-.931.027h-.064c-.353.011-.716.026-1.08.026s-.722-.015-1.068-.026h-.062a22.046 22.046 0 0 0-.894-.025h-.109v.609h.285c.544 0 .854.1.854.631v6.8c0 .526-.31.628-.854.628h-.285v.608h.109l.868-.016h.082c.418-.015.908-.033 1.346-.033s.857.016 1.252.032l1.018.019a3.481 3.481 0 0 0 2.236-.783 2.471 2.471 0 0 0 .937-1.892 2.194 2.194 0 0 0-.671-1.618 3.064 3.064 0 0 0-1.691-.774zm-1.933-.27s-.364-.01-.536-.012v-3.168h.671c.806 0 1.628.2 1.628 1.635.001 1.041-.575 1.545-1.762 1.545zm2.335 2.712a1.777 1.777 0 0 1-1.811 1.861c-.92 0-1.06-.129-1.06-.992v-2.834l.72.009a2.39 2.39 0 0 1 1.547.469 1.836 1.836 0 0 1 .605 1.488zM81.857 12.8l-.745.02-.235.007h-.066c-.327.01-.661.025-.97.025s-.658-.015-.993-.025h-.067a21.467 21.467 0 0 0-.861-.025h-.11v.609h.29c.539 0 .849.1.849.631v6.8c0 .526-.31.628-.849.628h-.293v.608h.11l.853-.019c.327-.014.706-.032 1.055-.032.326 0 .688.016 1.031.031h.037l.96.019h.11v-.608h-.292c-.54 0-.85-.1-.85-.628v-6.8c0-.528.31-.631.85-.631h.292v-.61h-.11zM91.767 19.784a2.142 2.142 0 0 1-.352.774 1.636 1.636 0 0 1-1.14.612 7.533 7.533 0 0 1-1.538.026c-.47-.058-.675-.243-.675-.615V14c0-.591.29-.591.773-.591h.435V12.8h-.11c-.322 0-.643.014-.952.028h-.04c-.32.011-.653.026-.983.026s-.688-.015-1.023-.026c-.31-.016-.673-.028-1.031-.028h-.109v.609h.291c.55 0 .863.1.863.631v6.672c0 .7-.407.761-.863.761h-.291v.608h.109l1.677-.021h.043c.673-.019 1.214-.031 1.711-.031s1 .01 1.63.031h.047c.511.01 1.039.021 1.595.021h.091l.013-.089c.107-.486.19-.933.276-1.408l.167-.879h-.591zM64.258 20.755l-1.665-2.268a2.669 2.669 0 0 0-.728-.726 2.9 2.9 0 0 0 1.852-2.526 2.118 2.118 0 0 0-.983-1.946 4.268 4.268 0 0 0-2.218-.49l-.775.02-.2.007h-.06c-.328.011-.671.026-1.05.026-.437 0-.884-.016-1.306-.031h-.132l-.574-.018h-.109v.609h.342c.444 0 .811.065.811.879v6.594c0 .564-.574.607-.749.607l-.35.013v.579h.113c.308 0 .6-.011.937-.025.278-.013.584-.027.885-.027.322 0 .678.011 1.115.031h.029l1.092.021h.11v-.608H60.3c-.593 0-.952-.045-.952-.927v-2.484c.138.007.587.018.587.018a.517.517 0 0 1 .457.247 50.62 50.62 0 0 0 2.147 3.032 1.818 1.818 0 0 0 1.673.71h1.468v-.581l-.1-.01a1.294 1.294 0 0 1-1.322-.726zm-2.5-5.439a2.1 2.1 0 0 1-.5 1.536 1.848 1.848 0 0 1-1.37.452c-.005 0-.418-.032-.544-.038V13.61l.07-.005a3.848 3.848 0 0 1 .557-.034 1.637 1.637 0 0 1 1.784 1.744zM101.374 12.767l-.291.021h-.039l-.577.009h-6.238c-.308 0-.5-.011-.689-.023h-.062l-.49-.045v.119a5.309 5.309 0 0 1-.05.781l-.006.08-.019.137-.118.948-.013.1h.6l.023-.081c.2-.954.219-1.077 1.107-1.084h1.747v6.766c0 .944-.3.981-.968.981h-.351v.608h.108l.877-.019c.411-.015.888-.033 1.318-.033.368 0 .806.018 1.19.031h.027l.9.019h.11v-.608h-.357c-.566 0-.968-.071-.968-1.007v-6.74h1.806c.8.007.843.72.863 1.1l.008.137.594-.15v-.086l.022-1.034c.011-.344.038-.655.05-.814l.014-.131-.134.014zM153.878 20.8a5.118 5.118 0 0 0 1.192.621 3.757 3.757 0 0 0 1.312.246 2.408 2.408 0 0 0 1.686-.588 2 2 0 0 0 .647-1.557 1.944 1.944 0 0 0-.179-.861 2 2 0 0 0-.494-.639 3.324 3.324 0 0 0-.689-.459q-.375-.187-.92-.426a12.155 12.155 0 0 1-1.167-.562 4.471 4.471 0 0 1-.852-.63 2.766 2.766 0 0 1-.647-.954 3.445 3.445 0 0 1-.247-1.362 2.813 2.813 0 0 1 1-2.231 3.79 3.79 0 0 1 2.572-.869 6.024 6.024 0 0 1 3.133.919l-.562 1.073a6.894 6.894 0 0 0-1.2-.647 3.5 3.5 0 0 0-1.3-.221 2.344 2.344 0 0 0-1.516.537 1.847 1.847 0 0 0-.665 1.524 1.726 1.726 0 0 0 .7 1.363 3.745 3.745 0 0 0 .647.426q.357.188.954.477.716.341 1.184.6a5 5 0 0 1 .895.647 2.788 2.788 0 0 1 .672.92 2.963 2.963 0 0 1 .247 1.252 3.269 3.269 0 0 1-.988 2.4 3.828 3.828 0 0 1-2.827.988 5.9 5.9 0 0 1-1.695-.23 6.273 6.273 0 0 1-1.541-.707zM167.555 15.95a2.332 2.332 0 0 0-1.839-.988 2.246 2.246 0 0 0-1.789.962 4.144 4.144 0 0 0-.766 2.648 3.265 3.265 0 0 0 .758 2.24 2.3 2.3 0 0 0 1.78.859 2.072 2.072 0 0 0 1.056-.322 2.893 2.893 0 0 0 .869-.768l.7.8a4.076 4.076 0 0 1-1.3 1.072 3.453 3.453 0 0 1-1.558.342 3.506 3.506 0 0 1-2.683-1.193 3.959 3.959 0 0 1-.8-1.422 5.86 5.86 0 0 1-.281-1.865 4.935 4.935 0 0 1 .29-1.677 4.594 4.594 0 0 1 .834-1.447 3.962 3.962 0 0 1 1.269-1 3.507 3.507 0 0 1 1.575-.357 3.249 3.249 0 0 1 1.542.383 3.864 3.864 0 0 1 1.235 1.031zM169.938 9.785h1.414l-.068 5.621h.034a3.5 3.5 0 0 1 1.277-1.15 3.309 3.309 0 0 1 1.567-.417 2.591 2.591 0 0 1 1.992.655 2.758 2.758 0 0 1 .6 1.916v.971c-.011.533-.017.857-.017.971l-.034 4.207h-1.363l.034-3.816c0-.113.005-.482.017-1.105V16.41a1.233 1.233 0 0 0-.409-1 1.733 1.733 0 0 0-1.141-.341 2.349 2.349 0 0 0-1.26.383 5.574 5.574 0 0 0-1.277 1.184l-.068 5.927h-1.362zM179 16.682a4.636 4.636 0 0 1 .8-1.447 3.76 3.76 0 0 1 1.311-1.022 4.02 4.02 0 0 1 1.754-.375 3.69 3.69 0 0 1 2.912 1.192 4.784 4.784 0 0 1 1.056 3.286 5.057 5.057 0 0 1-.272 1.637 4.645 4.645 0 0 1-.8 1.447 3.769 3.769 0 0 1-1.312 1.021 4.012 4.012 0 0 1-1.754.375 3.688 3.688 0 0 1-2.912-1.193 4.778 4.778 0 0 1-1.056-3.287 5.049 5.049 0 0 1 .273-1.634zm1.908 4.207a2.222 2.222 0 0 0 1.805.887 2.415 2.415 0 0 0 1.856-.9 3.723 3.723 0 0 0 .8-2.555 4.01 4.01 0 0 0-.715-2.571 2.225 2.225 0 0 0-1.805-.886 2.42 2.42 0 0 0-1.856.9 3.725 3.725 0 0 0-.8 2.554 4.009 4.009 0 0 0 .714 2.571zM188.468 16.682a4.636 4.636 0 0 1 .8-1.447 3.76 3.76 0 0 1 1.311-1.022 4.02 4.02 0 0 1 1.754-.375 3.69 3.69 0 0 1 2.912 1.192 4.784 4.784 0 0 1 1.056 3.286 5.057 5.057 0 0 1-.272 1.637 4.645 4.645 0 0 1-.8 1.447 3.769 3.769 0 0 1-1.312 1.021 4.012 4.012 0 0 1-1.754.375 3.688 3.688 0 0 1-2.912-1.193 4.778 4.778 0 0 1-1.056-3.287 5.049 5.049 0 0 1 .273-1.634zm1.908 4.207a2.222 2.222 0 0 0 1.805.887 2.415 2.415 0 0 0 1.856-.9 3.723 3.723 0 0 0 .8-2.555 4.01 4.01 0 0 0-.715-2.571 2.225 2.225 0 0 0-1.805-.886 2.42 2.42 0 0 0-1.856.9 3.725 3.725 0 0 0-.8 2.554 4.009 4.009 0 0 0 .715 2.571zM198.244 9.785h1.362l-.1 12.774h-1.362zM206.453 16.682a4.636 4.636 0 0 1 .8-1.447 3.76 3.76 0 0 1 1.311-1.022 4.02 4.02 0 0 1 1.754-.375 3.69 3.69 0 0 1 2.912 1.192 4.784 4.784 0 0 1 1.056 3.286 5.057 5.057 0 0 1-.272 1.637 4.645 4.645 0 0 1-.8 1.447 3.769 3.769 0 0 1-1.312 1.021 4.012 4.012 0 0 1-1.754.375 3.688 3.688 0 0 1-2.912-1.193 4.778 4.778 0 0 1-1.056-3.287 5.049 5.049 0 0 1 .273-1.634zm1.908 4.207a2.222 2.222 0 0 0 1.805.887 2.415 2.415 0 0 0 1.856-.9 3.723 3.723 0 0 0 .8-2.555 4.01 4.01 0 0 0-.715-2.571 2.225 2.225 0 0 0-1.805-.886 2.42 2.42 0 0 0-1.856.9 3.725 3.725 0 0 0-.8 2.554 4.009 4.009 0 0 0 .714 2.571zM215.343 14.077H217q0-.885.068-1.635a2.765 2.765 0 0 1 1.064-2.137 4.247 4.247 0 0 1 2.5-.656v1.124h-.6a1.431 1.431 0 0 0-1.218.554 2.408 2.408 0 0 0-.451 1.388l-.051 1.362h2.316V15.1h-2.265l-.068 7.46h-1.363L217 15.1h-1.652zM226.907 10.772h6.063V12h-4.615l-.034 4h4.5v1.226h-4.479l-.034 4.105h4.734v1.227H226.8zM235.252 14.077h1.362l-.051 1.362h.034a3.812 3.812 0 0 1 1.312-1.175 3.253 3.253 0 0 1 1.566-.426 2.593 2.593 0 0 1 1.993.655 2.758 2.758 0 0 1 .6 1.916v.971a60.35 60.35 0 0 0-.017.971l-.034 4.207h-1.362l.034-3.816c0-.113 0-.482.017-1.105V16.41a1.233 1.233 0 0 0-.409-1 1.731 1.731 0 0 0-1.141-.341 2.352 2.352 0 0 0-1.261.383 5.594 5.594 0 0 0-1.277 1.184l-.067 5.927h-1.363zM252.624 15.149l-2.01-.051a2.4 2.4 0 0 1 .613 1.635 2.825 2.825 0 0 1-.222 1.116 2.651 2.651 0 0 1-.63.9 2.947 2.947 0 0 1-.953.6 3.147 3.147 0 0 1-1.158.213 3.47 3.47 0 0 1-1.482-.324 7.408 7.408 0 0 0-.749.623.555.555 0 0 0-.187.365.312.312 0 0 0 .094.23 1.152 1.152 0 0 0 .366.2 5.137 5.137 0 0 0 .826.23q.554.12 1.405.238a8.115 8.115 0 0 1 2.733.793 1.711 1.711 0 0 1 .911 1.592 2.313 2.313 0 0 1-.392 1.328 3.319 3.319 0 0 1-1.03.971 4.925 4.925 0 0 1-1.38.58 5.794 5.794 0 0 1-1.422.188 8.584 8.584 0 0 1-1.312-.1 4.763 4.763 0 0 1-1.261-.375 2.6 2.6 0 0 1-.971-.74 1.807 1.807 0 0 1-.374-1.166 1.466 1.466 0 0 1 .2-.758 2.425 2.425 0 0 1 .52-.621 4.614 4.614 0 0 1 .655-.479c.228-.135.494-.283.8-.441l.1-.051v-.035a3.979 3.979 0 0 1-1.55-.391.825.825 0 0 1-.494-.7 1.076 1.076 0 0 1 .434-.766 9.65 9.65 0 0 1 1.542-1.023 2.768 2.768 0 0 1-.826-1 3.091 3.091 0 0 1-.247-1.3 2.6 2.6 0 0 1 .247-1.133 2.742 2.742 0 0 1 .673-.894 2.975 2.975 0 0 1 .971-.57 3.35 3.35 0 0 1 1.141-.2 3.005 3.005 0 0 1 1.584.392l2.827-.051zm-6.982 9.776a1.776 1.776 0 0 0 .613.494 2.927 2.927 0 0 0 .8.264 4.741 4.741 0 0 0 .835.076 3.8 3.8 0 0 0 .911-.119 4.005 4.005 0 0 0 .929-.357 2.109 2.109 0 0 0 .715-.613 1.438 1.438 0 0 0 .272-.869 1.1 1.1 0 0 0-.162-.621 1.4 1.4 0 0 0-.536-.443 4.818 4.818 0 0 0-1.03-.357q-.656-.161-1.729-.35a5.173 5.173 0 0 0-1.465 1.049 1.631 1.631 0 0 0-.392 1.08 1.214 1.214 0 0 0 .239.767zm3.814-9.64a1.515 1.515 0 0 0-1.277-.528 1.458 1.458 0 0 0-1.166.562 2.184 2.184 0 0 0-.469 1.448 2.091 2.091 0 0 0 .426 1.328 1.392 1.392 0 0 0 1.158.545 1.568 1.568 0 0 0 1.312-.537 2.162 2.162 0 0 0 .426-1.387 2.274 2.274 0 0 0-.41-1.43zM253.986 10.772h1.465v1.533h-1.465zm.068 3.3h1.362l-.068 8.482h-1.362zM257.972 14.077h1.362l-.051 1.362h.034a3.812 3.812 0 0 1 1.312-1.175 3.253 3.253 0 0 1 1.566-.426 2.593 2.593 0 0 1 1.993.655 2.758 2.758 0 0 1 .6 1.916v.971a60.35 60.35 0 0 0-.017.971l-.034 4.207h-1.362l.034-3.816c0-.113 0-.482.017-1.105V16.41a1.233 1.233 0 0 0-.409-1 1.731 1.731 0 0 0-1.141-.341 2.352 2.352 0 0 0-1.261.383 5.594 5.594 0 0 0-1.277 1.184l-.067 5.927H257.9zM268.224 18.131v.289a5.834 5.834 0 0 0 .137 1.285 3.467 3.467 0 0 0 .426 1.074 2.1 2.1 0 0 0 .749.73 2.136 2.136 0 0 0 1.09.266 2.368 2.368 0 0 0 1.21-.316 7.472 7.472 0 0 0 1.209-.91l.664.732a5.873 5.873 0 0 1-1.516 1.107 3.809 3.809 0 0 1-1.721.408 3.343 3.343 0 0 1-2.733-1.193 5.029 5.029 0 0 1-.979-3.287 5.1 5.1 0 0 1 .28-1.677 4.535 4.535 0 0 1 .81-1.439 3.968 3.968 0 0 1 1.243-1 3.35 3.35 0 0 1 1.55-.366 2.851 2.851 0 0 1 2.452 1.107 4.787 4.787 0 0 1 .817 2.912v.273zm4.326-.92a2.906 2.906 0 0 0-.46-1.678 1.612 1.612 0 0 0-1.431-.673 1.939 1.939 0 0 0-1.516.7 3.467 3.467 0 0 0-.8 1.653zM276.739 18.131v.289a5.834 5.834 0 0 0 .137 1.285 3.467 3.467 0 0 0 .426 1.074 2.1 2.1 0 0 0 .749.73 2.136 2.136 0 0 0 1.09.266 2.368 2.368 0 0 0 1.21-.316 7.472 7.472 0 0 0 1.209-.91l.664.732a5.873 5.873 0 0 1-1.516 1.107 3.809 3.809 0 0 1-1.721.408 3.343 3.343 0 0 1-2.733-1.193 5.029 5.029 0 0 1-.979-3.287 5.1 5.1 0 0 1 .28-1.677 4.535 4.535 0 0 1 .81-1.439 3.968 3.968 0 0 1 1.243-1 3.35 3.35 0 0 1 1.55-.366 2.851 2.851 0 0 1 2.452 1.107 4.787 4.787 0 0 1 .817 2.912v.273zm4.326-.92a2.906 2.906 0 0 0-.46-1.678 1.612 1.612 0 0 0-1.431-.673 1.939 1.939 0 0 0-1.516.7 3.467 3.467 0 0 0-.8 1.653zM284.472 14.077h1.4l-.017 1.652.034.034a3.141 3.141 0 0 1 .332-.647 3.753 3.753 0 0 1 .485-.6 2.155 2.155 0 0 1 1.532-.681 2.107 2.107 0 0 1 .732.119l-.408 1.294a2.365 2.365 0 0 0-.528-.085 1.888 1.888 0 0 0-1.09.443 4.185 4.185 0 0 0-1.107 1.379l-.067 5.57h-1.37zM289.938 10.772h1.462v1.533h-1.465zm.068 3.3h1.362l-.068 8.482h-1.362zM293.924 14.077h1.362l-.051 1.362h.034a3.812 3.812 0 0 1 1.312-1.175 3.253 3.253 0 0 1 1.566-.426 2.593 2.593 0 0 1 1.993.655 2.758 2.758 0 0 1 .6 1.916v.971a60.35 60.35 0 0 0-.017.971l-.034 4.207h-1.362l.034-3.816c0-.113 0-.482.017-1.105V16.41a1.233 1.233 0 0 0-.409-1 1.731 1.731 0 0 0-1.141-.341 2.352 2.352 0 0 0-1.261.383 5.594 5.594 0 0 0-1.277 1.184l-.067 5.927h-1.363zM311.295 15.149l-2.01-.051a2.4 2.4 0 0 1 .613 1.635 2.825 2.825 0 0 1-.222 1.116 2.651 2.651 0 0 1-.63.9 2.947 2.947 0 0 1-.953.6 3.147 3.147 0 0 1-1.158.213 3.47 3.47 0 0 1-1.482-.324 7.408 7.408 0 0 0-.749.623.555.555 0 0 0-.187.365.312.312 0 0 0 .094.23 1.152 1.152 0 0 0 .366.2 5.137 5.137 0 0 0 .826.23q.554.12 1.405.238a8.115 8.115 0 0 1 2.733.793 1.711 1.711 0 0 1 .911 1.592 2.313 2.313 0 0 1-.392 1.328 3.319 3.319 0 0 1-1.03.971 4.925 4.925 0 0 1-1.38.58 5.794 5.794 0 0 1-1.422.188 8.584 8.584 0 0 1-1.312-.1 4.763 4.763 0 0 1-1.261-.375 2.6 2.6 0 0 1-.971-.74 1.807 1.807 0 0 1-.374-1.166 1.466 1.466 0 0 1 .2-.758 2.425 2.425 0 0 1 .52-.621 4.614 4.614 0 0 1 .655-.479c.228-.135.494-.283.8-.441l.1-.051v-.035a3.979 3.979 0 0 1-1.55-.391.825.825 0 0 1-.494-.7 1.076 1.076 0 0 1 .434-.766 9.65 9.65 0 0 1 1.542-1.023 2.768 2.768 0 0 1-.826-1 3.091 3.091 0 0 1-.247-1.3 2.6 2.6 0 0 1 .256-1.13 2.742 2.742 0 0 1 .673-.894 2.975 2.975 0 0 1 .971-.57 3.35 3.35 0 0 1 1.141-.2 3.005 3.005 0 0 1 1.584.392l2.827-.051zm-6.982 9.776a1.776 1.776 0 0 0 .613.494 2.927 2.927 0 0 0 .8.264 4.741 4.741 0 0 0 .835.076 3.8 3.8 0 0 0 .911-.119 4.005 4.005 0 0 0 .929-.357 2.109 2.109 0 0 0 .715-.613 1.438 1.438 0 0 0 .272-.869 1.1 1.1 0 0 0-.162-.621 1.4 1.4 0 0 0-.536-.443 4.818 4.818 0 0 0-1.03-.357q-.656-.161-1.729-.35a5.173 5.173 0 0 0-1.465 1.049 1.631 1.631 0 0 0-.392 1.08 1.214 1.214 0 0 0 .239.767zm3.814-9.64a1.515 1.515 0 0 0-1.277-.528 1.458 1.458 0 0 0-1.166.562 2.184 2.184 0 0 0-.469 1.448 2.091 2.091 0 0 0 .426 1.328 1.392 1.392 0 0 0 1.158.545 1.568 1.568 0 0 0 1.312-.537 2.162 2.162 0 0 0 .426-1.387 2.274 2.274 0 0 0-.41-1.43z"/></svg>