<svg xmlns="http://www.w3.org/2000/svg" xmlns:xlink="http://www.w3.org/1999/xlink" viewBox="0 0 950 100"><defs><style>.a{fill:none;}.b{clip-path:url(#a);}.c{fill:#e1e1e1;}.d{fill:#d8ab4c;}.e{fill-rule:evenodd;}.f{fill:#231f20;}</style><clipPath id="a"><rect class="a" width="950" height="100"/></clipPath></defs><title>DSHeader</title><g class="b"><polygon class="c" points="831.128 300.367 724.056 188.959 585.013 256.363 657.882 120.104 550.809 8.695 702.917 35.891 775.786 -100.367 796.925 52.7 949.033 79.896 809.989 147.3 831.128 300.367"/><polygon class="d" points="638.985 194.025 546.709 167.033 491.697 245.882 489.679 150.352 397.403 123.361 488.432 91.311 486.414 -4.219 544.691 71.503 635.72 39.453 580.708 118.302 638.985 194.025"/><polygon class="d" points="1052.715 165.104 956.299 174.237 934.205 268.531 896.711 179.882 800.296 189.015 873.539 125.094 836.045 36.445 918.806 85.589 992.049 21.668 969.955 115.961 1052.715 165.104"/><polygon class="d" points="882.547 -5.157 781.855 5.84 762.956 105.351 719.625 12.636 618.933 23.633 692.844 -44.665 649.513 -137.379 738.524 -86.875 812.436 -155.173 793.536 -55.662 882.547 -5.157"/><path class="e" d="M225.683,58.018c-2.178,2.277-4.1,4.277-6.016,6.292-5.444,5.73-10.866,11.479-16.337,17.18a14.675,14.675,0,0,1-3,2.437,6.5,6.5,0,0,1-7.933-.5,6.816,6.816,0,0,1-2.207-8.019,14.051,14.051,0,0,1,3.069-4.391c7.649-7.468,15.393-14.839,23.115-22.229.556-.533,1.18-.991,2.061-1.727-1.359-1.275-2.5-2.3-3.592-3.376-2.442-2.415-4.859-4.854-7.288-7.28-2.53-2.53-2.534-2.537-5.556-.647a14.913,14.913,0,0,0-7.011,10.681c-.134.783-.937,1.451-1.431,2.171-.578-.658-1.433-1.226-1.686-2a18.267,18.267,0,0,1,.112-11.818c1.714-5.059,4.711-9.445,7.944-13.6,1.552-1.994,3.476-3.574,4.843-5.895,1.826-3.1,4.747-5.552,7.073-8.144,4.072,4.068,7.9,7.892,11.838,11.82-3.4,3.146-6.374,7.056-10.651,8.484l12.475,12.524c1.628-1.562,3.855-3.629,5.965-5.81a2.347,2.347,0,0,0,.278-1.881c-2.486-9.893,3.121-19.051,13.056-21.139a15.727,15.727,0,0,1,4.051-.213,2.151,2.151,0,0,1,1.651.936,2.235,2.235,0,0,1-.573,1.848c-2.134,2.261-4.314,4.483-6.592,6.6a2.3,2.3,0,0,0-.725,2.887,3.322,3.322,0,0,1,.133.365c.654,2.148.7,4.948,2.123,6.268,1.507,1.4,4.3,1.488,6.572,1.93a3.1,3.1,0,0,0,2.336-.715c2.194-2.01,4.211-4.221,6.391-6.25a8.227,8.227,0,0,1,2.3-1.074,7.315,7.315,0,0,1,.945,2.313,16.68,16.68,0,0,1-20.989,16.569,2.494,2.494,0,0,0-3,.876c-1.157,1.38-2.465,2.631-3.771,4.006.483.508.866.924,1.267,1.325q12.089,12.1,24.2,24.175c2.3,2.286,3.424,4.88,2.5,8.061a7.269,7.269,0,0,1-11.289,3.8,16.757,16.757,0,0,1-2.016-1.823q-11.686-11.672-23.354-23.37A17.517,17.517,0,0,1,225.683,58.018ZM197.344,79.7a2.167,2.167,0,0,0-2.175-2.138,2.252,2.252,0,0,0-2.134,2.21,2.2,2.2,0,0,0,2.207,2.114A2.111,2.111,0,0,0,197.344,79.7Z"/><path class="f" d="M15.982,35.432a.757.757,0,0,1,.725-.766h9.541a14.091,14.091,0,1,1,0,28.181H16.707a.757.757,0,0,1-.725-.764Zm9.783,22.5a8.887,8.887,0,0,0,9.059-9.219,8.878,8.878,0,0,0-9.059-9.179H21.176v18.4Z"/><path class="f" d="M47.707,35.432a.765.765,0,0,1,.765-.766H64.857a.764.764,0,0,1,.764.766v3.3a.764.764,0,0,1-.764.764H52.94v6.6h9.944a.792.792,0,0,1,.765.764v3.342a.764.764,0,0,1-.765.764H52.94v7.045H64.857a.764.764,0,0,1,.764.766v3.3a.764.764,0,0,1-.764.764H48.472a.765.765,0,0,1-.765-.764Z"/><path class="f" d="M71.742,58.9l1.449-2.5a.934.934,0,0,1,1.369-.282c.2.121,3.462,2.5,6.079,2.5,2.093,0,3.663-1.368,3.663-3.1,0-2.054-1.731-3.463-5.113-4.831-3.784-1.53-7.568-3.945-7.568-8.7,0-3.584,2.657-7.73,9.058-7.73a14.174,14.174,0,0,1,8.052,2.7,1,1,0,0,1,.241,1.328l-1.529,2.3a1.06,1.06,0,0,1-1.409.483c-.322-.2-3.382-2.214-5.6-2.214-2.295,0-3.542,1.53-3.542,2.818,0,1.892,1.489,3.181,4.75,4.508,3.905,1.571,8.414,3.905,8.414,9.1,0,4.146-3.583,7.971-9.259,7.971a12.947,12.947,0,0,1-8.857-3.141C71.581,59.747,71.38,59.546,71.742,58.9Z"/><path class="f" d="M97.226,35.432a.792.792,0,0,1,.765-.766h3.744a.792.792,0,0,1,.765.766V62.083a.791.791,0,0,1-.765.764H97.991a.792.792,0,0,1-.765-.764Z"/><path class="f" d="M124.28,34.264a15.218,15.218,0,0,1,9.823,3.744.779.779,0,0,1,.041,1.127l-2.5,2.617a.688.688,0,0,1-1.047,0,9.125,9.125,0,0,0-6.079-2.335,9.283,9.283,0,0,0,.04,18.56,12.594,12.594,0,0,0,4.791-1.007V53.548h-3.221a.731.731,0,0,1-.765-.724V49.643a.741.741,0,0,1,.765-.766h7.73a.757.757,0,0,1,.725.766V59.949a.774.774,0,0,1-.322.643,20.342,20.342,0,0,1-9.984,2.617,14.473,14.473,0,0,1,0-28.946Z"/><path class="f" d="M142.518,34.989a.757.757,0,0,1,.765-.725h1.007l16.747,17.794h.041V35.432a.764.764,0,0,1,.764-.766h3.7a.792.792,0,0,1,.765.766V62.526a.758.758,0,0,1-.765.725h-.966L147.751,44.771h-.04V62.083a.765.765,0,0,1-.765.764h-3.664a.792.792,0,0,1-.765-.764Z"/><path class="f" d="M283.1,58.9l1.448-2.5a.935.935,0,0,1,1.37-.282c.2.121,3.462,2.5,6.079,2.5,2.093,0,3.664-1.368,3.664-3.1,0-2.054-1.732-3.463-5.114-4.831-3.783-1.53-7.568-3.945-7.568-8.7,0-3.584,2.657-7.73,9.059-7.73a14.174,14.174,0,0,1,8.051,2.7,1,1,0,0,1,.242,1.328l-1.53,2.3a1.06,1.06,0,0,1-1.409.483c-.322-.2-3.381-2.214-5.6-2.214-2.3,0-3.543,1.53-3.543,2.818,0,1.892,1.489,3.181,4.75,4.508,3.905,1.571,8.414,3.905,8.414,9.1,0,4.146-3.582,7.971-9.259,7.971A12.946,12.946,0,0,1,283.3,60.11C282.94,59.747,282.739,59.546,283.1,58.9Z"/><path class="f" d="M312.369,39.5H306.21a.764.764,0,0,1-.764-.764v-3.3a.764.764,0,0,1,.764-.766H323.8a.764.764,0,0,1,.764.766v3.3a.764.764,0,0,1-.764.764h-6.16V62.083a.792.792,0,0,1-.764.764h-3.744a.792.792,0,0,1-.766-.764Z"/><path class="f" d="M330.365,35.432a.792.792,0,0,1,.766-.766h3.824a.764.764,0,0,1,.764.766V51.9a5.862,5.862,0,1,0,11.715.039V35.432a.765.765,0,0,1,.766-.766h3.824a.792.792,0,0,1,.766.766V52.179a11.213,11.213,0,0,1-22.424,0Z"/><path class="f" d="M361.728,35.432a.757.757,0,0,1,.725-.766h9.54a14.091,14.091,0,1,1,0,28.181h-9.54a.757.757,0,0,1-.725-.764Zm9.782,22.5a8.888,8.888,0,0,0,9.059-9.219,8.878,8.878,0,0,0-9.059-9.179h-4.59v18.4Z"/><path class="f" d="M393.453,35.432a.792.792,0,0,1,.764-.766h3.744a.792.792,0,0,1,.766.766V62.083a.792.792,0,0,1-.766.764h-3.744a.792.792,0,0,1-.764-.764Z"/><path class="f" d="M420.506,34.264A14.493,14.493,0,1,1,406.054,48.8,14.467,14.467,0,0,1,420.506,34.264Zm0,23.752a9.259,9.259,0,1,0-9.219-9.219A9.277,9.277,0,0,0,420.506,58.016Z"/></g></svg>